<?xml version="1.0" encoding="iso-8859-1"?>
<!-- Generator: Adobe Illustrator 19.0.0, SVG Export Plug-In . SVG Version: 6.00 Build 0)  -->
<svg version="1.1" id="Capa_1" xmlns="http://www.w3.org/2000/svg" xmlns:xlink="http://www.w3.org/1999/xlink" x="0px" y="0px"
	 viewBox="0 0 512 512" style="enable-background:new 0 0 512 512;" xml:space="preserve">
<path style="fill:#E5E5E5;" d="M508.174,246.097c-4.502-5.101-115.433-125.136-253.175-125.136S8.328,240.997,3.825,246.097
	c-5.101,5.702-5.101,14.105,0,19.807c4.502,5.1,113.432,125.136,251.174,125.136s248.672-120.035,253.175-125.136
	C513.276,260.202,513.276,251.799,508.174,246.097z"/>
<path style="fill:#D9D9D9;" d="M508.174,265.904c-4.502,5.1-115.433,125.136-253.175,125.136V120.96
	c137.742,0,248.672,120.035,253.175,125.136C513.276,251.799,513.276,260.202,508.174,265.904z"/>
<path style="fill:#4DBBEB;" d="M254.999,120.96c-74.421,0-135.04,60.619-135.04,135.04s60.619,135.04,135.04,135.04
	s135.04-60.619,135.04-135.04S329.421,120.96,254.999,120.96z"/>
<path style="fill:#159CE4;" d="M390.039,256c0,74.421-60.619,135.04-135.04,135.04V120.96
	C329.421,120.96,390.039,181.579,390.039,256z"/>
<path style="fill:#787780;" d="M254.999,180.978c-41.412,0-75.022,33.61-75.022,75.022s33.61,75.022,75.022,75.022
	s75.022-33.61,75.022-75.022S296.413,180.978,254.999,180.978z"/>
<path style="fill:#57555C;" d="M330.022,256c0,41.412-33.61,75.022-75.022,75.022V180.978
	C296.413,180.978,330.022,214.588,330.022,256z"/>
<path style="fill:#E5E5E5;" d="M254.999,240.997c-8.273,0-15.004-6.731-15.004-15.004s6.731-15.004,15.004-15.004
	c8.273,0,15.004,6.731,15.004,15.004S263.274,240.997,254.999,240.997z"/>
<path style="fill:#D9D9D9;" d="M254.999,210.988v30.009c8.273,0,15.004-6.731,15.004-15.004S263.274,210.988,254.999,210.988z"/>
<g>
</g>
<g>
</g>
<g>
</g>
<g>
</g>
<g>
</g>
<g>
</g>
<g>
</g>
<g>
</g>
<g>
</g>
<g>
</g>
<g>
</g>
<g>
</g>
<g>
</g>
<g>
</g>
<g>
</g>
</svg>
